<svg width="26" height="26" viewBox="0 0 26 26" fill="none" xmlns="http://www.w3.org/2000/svg">
<g clip-path="url(#clip0_16_32)">
<path fill-rule="evenodd" clip-rule="evenodd" d="M12.9613 0C5.79402 0 0 5.95833 0 13.3296C0 19.2219 3.71243 24.2095 8.86255 25.9748C9.50645 26.1075 9.74231 25.688 9.74231 25.3351C9.74231 25.0261 9.72108 23.9669 9.72108 22.8632C6.11557 23.6578 5.36476 21.2742 5.36476 21.2742C4.78533 19.7294 3.9268 19.3324 3.9268 19.3324C2.74671 18.5158 4.01276 18.5158 4.01276 18.5158C5.32178 18.6041 6.00865 19.884 6.00865 19.884C7.16725 21.9142 9.0342 21.3406 9.78529 20.9874C9.89247 20.1267 10.236 19.5309 10.6008 19.1999C7.72518 18.8909 4.69963 17.7434 4.69963 12.6233C4.69963 11.1667 5.21433 9.97506 6.02988 9.04827C5.9012 8.71731 5.45045 7.34879 6.15882 5.51715C6.15882 5.51715 7.2532 5.16398 9.72082 6.8854C10.7773 6.59362 11.8668 6.44519 12.9613 6.44394C14.0557 6.44394 15.1713 6.59858 16.2015 6.8854C18.6693 5.16398 19.7637 5.51715 19.7637 5.51715C20.4721 7.34879 20.0211 8.71731 19.8924 9.04827C20.7294 9.97506 21.2229 11.1667 21.2229 12.6233C21.2229 17.7434 18.1973 18.8687 15.3002 19.1999C15.7724 19.6192 16.18 20.4135 16.18 21.6715C16.18 23.459 16.1587 24.8936 16.1587 25.3348C16.1587 25.688 16.3949 26.1075 17.0385 25.9751C22.1886 24.2092 25.901 19.2219 25.901 13.3296C25.9223 5.95833 20.107 0 12.9613 0Z" fill="white"/>
</g>
<defs>
<clipPath id="clip0_16_32">
<rect width="26" height="26" fill="white"/>
</clipPath>
</defs>
</svg>
