<svg width="26" height="26" viewBox="0 0 26 26" fill="none" xmlns="http://www.w3.org/2000/svg">
<path d="M23.1163 8.59805C23.131 8.81089 23.131 9.02372 23.131 9.23852C23.131 15.7835 18.1445 23.3319 9.02657 23.3319V23.328C6.3331 23.3319 3.69558 22.561 1.42812 21.1074C1.81977 21.1545 2.21338 21.178 2.60798 21.179C4.84011 21.181 7.00843 20.4326 8.76449 19.0546C6.64328 19.0143 4.78318 17.6324 4.13337 15.6148C4.87643 15.758 5.64206 15.7286 6.37138 15.5295C4.05877 15.0626 2.39498 13.0323 2.39498 10.6744C2.39498 10.6529 2.39498 10.6323 2.39498 10.6117C3.08405 10.9952 3.85558 11.208 4.64477 11.2315C2.46663 9.77699 1.79523 6.88162 3.11055 4.61789C5.62734 7.71237 9.34068 9.59358 13.3269 9.79269C12.9274 8.07233 13.4732 6.26959 14.761 5.06024C16.7575 3.18491 19.8976 3.28103 21.7744 5.27503C22.8846 5.05631 23.9486 4.64927 24.9224 4.07255C24.5523 5.21913 23.7778 6.19308 22.7432 6.81198C23.7258 6.69624 24.6858 6.43338 25.5898 6.03223C24.9243 7.02874 24.0861 7.89676 23.1163 8.59805Z" fill="white"/>
</svg>
