<svg width="24" height="24" viewBox="0 0 24 24" fill="none" xmlns="http://www.w3.org/2000/svg">
<g clip-path="url(#clip0_135_8)">
<path d="M0.263976 23.771H5.24798C5.51198 23.771 5.74598 23.624 5.89298 23.419L19.614 0.874004C19.79 0.581004 19.585 0.229004 19.233 0.229004H14.513C14.278 0.229004 14.073 0.346004 13.956 0.552004L0.0299763 23.361C-0.0580237 23.537 0.0589763 23.771 0.263976 23.771ZM17.445 23.419L23.924 13.011C24.129 12.688 23.895 12.278 23.514 12.278H18.823C18.647 12.278 18.471 12.366 18.383 12.513L11.728 23.156C11.552 23.42 11.757 23.772 12.08 23.772H16.859C17.093 23.771 17.327 23.654 17.445 23.419Z" fill="white"/>
</g>
<defs>
<clipPath id="clip0_135_8">
<rect width="24" height="24" fill="white"/>
</clipPath>
</defs>
</svg>
